<mxfile host="app.diagrams.net" modified="2024-04-28T20:56:43.050Z" agent="Mozilla/5.0 (Macintosh; Intel Mac OS X 10_15_7) AppleWebKit/537.36 (KHTML, like Gecko) Chrome/124.0.0.0 Safari/537.36" etag="VukSUfQAEbOFtOa5DvDh" version="24.3.1" type="device">
  <diagram name="Page-1" id="IgvmL1c59EEMmlrB2GUw">
    <mxGraphModel dx="954" dy="615" grid="1" gridSize="10" guides="1" tooltips="1" connect="1" arrows="1" fold="1" page="1" pageScale="1" pageWidth="850" pageHeight="1100" math="0" shadow="0">
      <root>
        <mxCell id="0" />
        <mxCell id="1" parent="0" />
        <mxCell id="qLw2iEU_IhM08ohpMVO2-6" style="edgeStyle=orthogonalEdgeStyle;rounded=0;orthogonalLoop=1;jettySize=auto;html=1;exitX=1;exitY=0.5;exitDx=0;exitDy=0;entryX=0;entryY=0.35;entryDx=0;entryDy=0;entryPerimeter=0;" parent="1" source="qLw2iEU_IhM08ohpMVO2-1" target="aqkMtWFFBZMZ4yiC3Dlc-2" edge="1">
          <mxGeometry relative="1" as="geometry" />
        </mxCell>
        <mxCell id="qLw2iEU_IhM08ohpMVO2-1" value="Module A" style="rounded=1;whiteSpace=wrap;html=1;fillColor=#ffe6cc;strokeColor=#d79b00;" parent="1" vertex="1">
          <mxGeometry x="150" y="200" width="120" height="60" as="geometry" />
        </mxCell>
        <mxCell id="qLw2iEU_IhM08ohpMVO2-2" value="Module B" style="rounded=1;whiteSpace=wrap;html=1;fillColor=#ffe6cc;strokeColor=#d79b00;" parent="1" vertex="1">
          <mxGeometry x="150" y="280" width="120" height="60" as="geometry" />
        </mxCell>
        <mxCell id="qLw2iEU_IhM08ohpMVO2-3" value="Module C" style="rounded=1;whiteSpace=wrap;html=1;fillColor=#ffe6cc;strokeColor=#d79b00;" parent="1" vertex="1">
          <mxGeometry x="150" y="360" width="120" height="60" as="geometry" />
        </mxCell>
        <mxCell id="qLw2iEU_IhM08ohpMVO2-4" value="Library X" style="rounded=0;whiteSpace=wrap;html=1;fillColor=#dae8fc;strokeColor=#6c8ebf;" parent="1" vertex="1">
          <mxGeometry x="520" y="280" width="120" height="60" as="geometry" />
        </mxCell>
        <mxCell id="DKGz9TdwNdRdg4p3FB0O-2" style="edgeStyle=orthogonalEdgeStyle;rounded=0;orthogonalLoop=1;jettySize=auto;html=1;" parent="1" source="aqkMtWFFBZMZ4yiC3Dlc-2" target="DKGz9TdwNdRdg4p3FB0O-1" edge="1">
          <mxGeometry relative="1" as="geometry" />
        </mxCell>
        <mxCell id="aqkMtWFFBZMZ4yiC3Dlc-2" value="Abstraction" style="shape=tape;whiteSpace=wrap;html=1;strokeWidth=2;size=0.19;fillColor=#e1d5e7;strokeColor=#9673a6;" parent="1" vertex="1">
          <mxGeometry x="360" y="207" width="100" height="65" as="geometry" />
        </mxCell>
        <mxCell id="DKGz9TdwNdRdg4p3FB0O-3" style="edgeStyle=orthogonalEdgeStyle;rounded=0;orthogonalLoop=1;jettySize=auto;html=1;entryX=0;entryY=0.75;entryDx=0;entryDy=0;" parent="1" source="aqkMtWFFBZMZ4yiC3Dlc-4" target="DKGz9TdwNdRdg4p3FB0O-1" edge="1">
          <mxGeometry relative="1" as="geometry" />
        </mxCell>
        <mxCell id="aqkMtWFFBZMZ4yiC3Dlc-4" value="Abstraction" style="shape=tape;whiteSpace=wrap;html=1;strokeWidth=2;size=0.19;fillColor=#e1d5e7;strokeColor=#9673a6;" parent="1" vertex="1">
          <mxGeometry x="360" y="278" width="100" height="65" as="geometry" />
        </mxCell>
        <mxCell id="DKGz9TdwNdRdg4p3FB0O-4" style="edgeStyle=orthogonalEdgeStyle;rounded=0;orthogonalLoop=1;jettySize=auto;html=1;entryX=0;entryY=1;entryDx=0;entryDy=0;" parent="1" source="aqkMtWFFBZMZ4yiC3Dlc-5" target="DKGz9TdwNdRdg4p3FB0O-1" edge="1">
          <mxGeometry relative="1" as="geometry">
            <Array as="points">
              <mxPoint x="500" y="390" />
              <mxPoint x="500" y="269" />
            </Array>
          </mxGeometry>
        </mxCell>
        <mxCell id="aqkMtWFFBZMZ4yiC3Dlc-5" value="Abstraction" style="shape=tape;whiteSpace=wrap;html=1;strokeWidth=2;size=0.19;fillColor=#e1d5e7;strokeColor=#9673a6;" parent="1" vertex="1">
          <mxGeometry x="360" y="357" width="100" height="65" as="geometry" />
        </mxCell>
        <mxCell id="aqkMtWFFBZMZ4yiC3Dlc-6" style="edgeStyle=orthogonalEdgeStyle;rounded=0;orthogonalLoop=1;jettySize=auto;html=1;exitX=1;exitY=0.5;exitDx=0;exitDy=0;entryX=0;entryY=0.5;entryDx=0;entryDy=0;entryPerimeter=0;" parent="1" source="qLw2iEU_IhM08ohpMVO2-2" target="aqkMtWFFBZMZ4yiC3Dlc-4" edge="1">
          <mxGeometry relative="1" as="geometry" />
        </mxCell>
        <mxCell id="aqkMtWFFBZMZ4yiC3Dlc-7" style="edgeStyle=orthogonalEdgeStyle;rounded=0;orthogonalLoop=1;jettySize=auto;html=1;exitX=1;exitY=0.5;exitDx=0;exitDy=0;entryX=0;entryY=0.5;entryDx=0;entryDy=0;entryPerimeter=0;" parent="1" source="qLw2iEU_IhM08ohpMVO2-3" target="aqkMtWFFBZMZ4yiC3Dlc-5" edge="1">
          <mxGeometry relative="1" as="geometry" />
        </mxCell>
        <mxCell id="DKGz9TdwNdRdg4p3FB0O-1" value="Library Y" style="rounded=0;whiteSpace=wrap;html=1;fillColor=#d5e8d4;strokeColor=#82b366;" parent="1" vertex="1">
          <mxGeometry x="520" y="209" width="120" height="60" as="geometry" />
        </mxCell>
        <mxCell id="DKGz9TdwNdRdg4p3FB0O-5" value="" style="shape=mxgraph.mockup.markup.redX;fillColor=#ff0000;html=1;shadow=0;whiteSpace=wrap;strokeColor=none;" parent="1" vertex="1">
          <mxGeometry x="551" y="281" width="58" height="58" as="geometry" />
        </mxCell>
      </root>
    </mxGraphModel>
  </diagram>
</mxfile>
